<?xml version="1.0" encoding="UTF-8"?>
<svg version="1.1" xmlns="http://www.w3.org/2000/svg" width="1563" height="1563" viewBox="0 0 1563 1563">
<path d="M0 0 C515.79 0 1031.58 0 1563 0 C1563 515.79 1563 1031.58 1563 1563 C1047.21 1563 531.42 1563 0 1563 C0 1047.21 0 531.42 0 0 Z " fill="#FEFEFE" transform="translate(0,0)"/>
<path d="M0 0 C1.71269288 1.34348962 3.40159459 2.71799095 5.0625 4.125 C6.24585938 5.12273438 6.24585938 5.12273438 7.453125 6.140625 C19.63800453 17.33082048 27.22676132 34.79449076 28.18530273 51.23071289 C28.93403497 72.12921788 24.71734321 91.53764433 10.77734375 107.7890625 C-0.78712998 119.92167995 -17.16543026 129.33141508 -34.17871094 130.31176758 C-37.87140873 130.39357426 -41.55651186 130.39778759 -45.25 130.375 C-46.49201172 130.38273438 -47.73402344 130.39046875 -49.01367188 130.3984375 C-69.45247033 130.3555664 -87.20145063 124.96118282 -102.125 110.5625 C-111.12525181 101.47007086 -116.70341619 90.48260446 -119.9375 78.125 C-120.27394531 76.87589844 -120.27394531 76.87589844 -120.6171875 75.6015625 C-125.50859525 53.82474717 -120.42850085 33.58829397 -108.98828125 14.94921875 C-97.86069793 -1.36973204 -79.95712656 -9.52257815 -61.15625 -13.45703125 C-39.61736862 -16.2539491 -17.96385582 -12.5521503 0 0 Z " fill="#81CC2B" transform="translate(599.9375,752.875)"/>
<path d="M0 0 C14.55199043 12.57750055 22.54274834 29.66191684 24.87890625 48.61328125 C24.96318469 51.30513303 25.00598876 53.96928005 24.99243164 56.65991211 C24.99257767 57.43146637 24.99272369 58.20302063 24.99287415 58.99795532 C24.99218263 61.52470808 24.98442619 64.05138527 24.9765625 66.578125 C24.97469561 68.33931946 24.97327299 70.10051443 24.97227478 71.86170959 C24.96847092 76.47959852 24.95865898 81.09745561 24.9475708 85.71533203 C24.93550431 91.26543775 24.93094429 96.81555415 24.92511749 102.36566925 C24.91544597 110.78156201 24.89627453 119.19738501 24.87890625 127.61328125 C10.68890625 127.61328125 -3.50109375 127.61328125 -18.12109375 127.61328125 C-18.146875 121.95429687 -18.17265625 116.2953125 -18.19921875 110.46484375 C-18.22440638 106.864539 -18.25075399 103.26431667 -18.28125 99.6640625 C-18.32946958 93.95849369 -18.3735575 88.25311583 -18.39208984 82.54736328 C-18.40731311 77.94353816 -18.44185841 73.34021498 -18.48940277 68.73661423 C-18.50415835 66.98653926 -18.5121314 65.23639261 -18.5129776 63.48625565 C-18.5218945 50.08752582 -18.5218945 50.08752582 -23.12109375 37.61328125 C-23.59546875 36.66453125 -24.06984375 35.71578125 -24.55859375 34.73828125 C-28.30318441 29.64563796 -33.14748812 27.31555341 -39.12109375 25.61328125 C-42.0929505 25.17505661 -44.99485416 25.08755266 -47.99609375 25.11328125 C-49.17800293 25.12294922 -49.17800293 25.12294922 -50.38378906 25.1328125 C-57.88395747 25.36767562 -63.54315575 27.02002018 -68.9453125 32.4453125 C-74.45574508 39.20993555 -76.57034752 46.38606682 -76.5534668 54.95703125 C-76.56365845 55.74823868 -76.5738501 56.53944611 -76.58435059 57.35462952 C-76.61427685 59.94092069 -76.62371498 62.5268403 -76.6328125 65.11328125 C-76.64967434 66.91789969 -76.6678266 68.72250649 -76.68721008 70.52709961 C-76.73455282 75.25506961 -76.76446366 79.98299241 -76.79064941 84.71112061 C-76.82579767 90.39569335 -76.88276541 96.08008492 -76.93604279 101.76451111 C-77.01437218 110.3807443 -77.06511714 118.99674332 -77.12109375 127.61328125 C-91.31109375 127.61328125 -105.50109375 127.61328125 -120.12109375 127.61328125 C-120.24142018 108.24963941 -120.24142018 108.24963941 -120.26757812 99.90820312 C-120.28541645 94.24690164 -120.30637205 88.5857476 -120.34741211 82.92456055 C-120.38033789 78.35335756 -120.39801574 73.78231299 -120.40572548 69.21100044 C-120.41121005 67.47894362 -120.42191731 65.74689411 -120.43828392 64.01490593 C-120.64504965 41.19796659 -116.03108283 21.2518711 -100.05859375 3.92578125 C-73.22384304 -21.39262225 -28.91668918 -22.11276231 0 0 Z " fill="#80CC2A" transform="translate(768.12109375,754.38671875)"/>
<path d="M0 0 C15.11961904 11.7720201 24.47252013 26.76634443 27.78607178 45.76455688 C28.65070354 53.13719584 28.42833916 60.56806043 28.3828125 67.98046875 C28.37907526 69.78078554 28.37623165 71.58110439 28.37423706 73.38142395 C28.36665657 78.08478563 28.34705704 82.78802079 28.3248291 87.49133301 C28.30062132 93.15331661 28.29156306 98.81534288 28.27992249 104.47736359 C28.26062863 113.04749664 28.22226733 121.61735291 28.1875 130.1875 C14.3275 130.1875 0.4675 130.1875 -13.8125 130.1875 C-13.86857422 122.02386719 -13.86857422 122.02386719 -13.92578125 113.6953125 C-13.95608445 110.23174016 -13.98724765 106.76821775 -14.02148438 103.3046875 C-14.0756542 97.81643294 -14.1267698 92.32827714 -14.15893555 86.83984375 C-14.18509081 82.41114372 -14.22557813 77.98277844 -14.27568626 73.55428696 C-14.29227278 71.87119612 -14.30383791 70.18804749 -14.31011391 68.50488663 C-14.36499574 55.12985232 -15.16570296 42.83429704 -25.125 32.875 C-33.70296856 27.48883369 -42.90963863 26.91952488 -52.8125 28.1875 C-59.81544537 30.16449211 -64.93746366 34.07673404 -68.8125 40.1875 C-73.70995159 49.62724704 -73.41679438 59.20309519 -73.421875 69.54296875 C-73.43688157 71.29846198 -73.45361386 73.05394122 -73.47198486 74.80940247 C-73.5153929 79.39434513 -73.53559808 83.97909744 -73.55072021 88.56420898 C-73.57385532 94.0845078 -73.62625386 99.60459948 -73.67366028 105.12473297 C-73.74217366 113.47904224 -73.77386536 121.83275881 -73.8125 130.1875 C-87.6725 130.1875 -101.5325 130.1875 -115.8125 130.1875 C-115.89271762 110.45396581 -115.89271762 110.45396581 -115.91015625 101.98046875 C-115.92206764 96.22017691 -115.93609141 90.45994923 -115.96337891 84.69970703 C-115.98526193 80.05072073 -115.99710092 75.40180334 -116.00225449 70.75276947 C-116.00592269 68.98754544 -116.01308498 67.22232477 -116.02396011 65.45713043 C-116.13976839 45.86349066 -113.51892122 29.5343044 -101.8125 13.1875 C-101.36390625 12.55328125 -100.9153125 11.9190625 -100.453125 11.265625 C-77.52486643 -18.13649481 -29.08079392 -20.30397573 0 0 Z " fill="#81CC2B" transform="translate(934.8125,751.8125)"/>
<path d="M0 0 C13.86 0 27.72 0 42 0 C42.02578125 5.41921875 42.0515625 10.8384375 42.078125 16.421875 C42.1033223 19.8763479 42.12967729 23.33073573 42.16015625 26.78515625 C42.20831501 32.2556987 42.25242539 37.72604398 42.27099609 43.19677734 C42.28625589 47.61258849 42.32086413 52.02788014 42.36830902 56.44345856 C42.38302744 58.11931058 42.39103547 59.79523682 42.39188385 61.47115326 C42.40380369 73.22231133 42.79752413 85.68908144 51 95 C60.44114869 102.26110163 69.35171384 103.19503274 81 102 C87.96865549 100.10255168 93.2299993 96.12802445 97 90 C101.62919197 80.12176001 101.60405471 70.41733346 101.609375 59.765625 C101.62438592 58.03398108 101.64111908 56.30235133 101.65948486 54.57073975 C101.7028443 50.0532153 101.72308707 45.53588386 101.73822021 41.01818848 C101.76137774 35.57629037 101.81377038 30.13460177 101.86116028 24.69287109 C101.92961911 16.46185995 101.9613547 8.23144789 102 0 C115.86 0 129.72 0 144 0 C144.16043524 19.78255607 144.16043524 19.78255607 144.1953125 28.31835938 C144.21907768 34.10684162 144.24696393 39.89506703 144.30175781 45.68334961 C144.34572768 50.35831549 144.36924307 55.03300535 144.37950897 59.70816231 C144.38680981 61.4776601 144.40106157 63.24714552 144.42292023 65.01652336 C144.66872005 85.76856181 141.1151535 105.3297984 126.25952148 120.86865234 C108.96767768 138.21638066 90.86302819 142.32461072 67.12915039 142.38500977 C48.70444853 142.17177424 33.75161624 136.12263349 20.24609375 123.30859375 C6.81684192 109.50565839 -0.20869117 91.20498363 -0.11352539 71.97509766 C-0.11367142 71.19393585 -0.11381744 70.41277405 -0.1139679 69.60794067 C-0.11327498 67.0432857 -0.10551184 64.47870468 -0.09765625 61.9140625 C-0.09578986 60.12901855 -0.094367 58.34397409 -0.09336853 56.55892944 C-0.08956075 51.87362235 -0.07974538 47.18834654 -0.06866455 42.50305176 C-0.05660875 36.87454372 -0.05203991 31.2460252 -0.04621124 25.61750793 C-0.03653265 17.07831691 -0.01736393 8.53919443 0 0 Z " fill="#80CC2B" transform="translate(987,741)"/>
</svg>